# Blender v2.79 (sub 0) OBJ File: 'Hilly Terrain Expansion-Hills.blend'
# www.blender.org
mtllib grass_hill_corner_inner_x3.mtl
o grass_hill_corner_inner_x3_Circle.015
v -2.500000 1.200000 -3.500000
v 3.500000 1.200000 2.500003
v 3.408847 1.200000 1.458114
v 3.138157 1.200000 0.447882
v 2.696154 1.200000 -0.499997
v 2.096269 1.200000 -1.356723
v 1.356729 1.200000 -2.096264
v 0.500003 1.200000 -2.696150
v -0.447875 1.200000 -3.138154
v -1.458107 1.200000 -3.408845
v -2.500000 0.200000 -1.500000
v 1.500000 0.200000 2.500002
v 1.439232 0.200000 1.805409
v 1.258771 0.200000 1.131922
v 0.964103 0.200000 0.500002
v 0.564179 0.200000 -0.071149
v 0.071152 0.200000 -0.564176
v -0.499998 0.200000 -0.964100
v -1.131917 0.200000 -1.258770
v -1.805405 0.200000 -1.439230
v -2.500000 0.350000 -2.000000
v 2.000000 0.350000 2.500002
v 1.931635 0.350000 1.718585
v 1.728618 0.350000 0.960912
v 1.397115 0.350000 0.250002
v 0.947202 0.350000 -0.392542
v 0.392546 0.350000 -0.947198
v -0.249997 0.350000 -1.397113
v -0.960906 0.350000 -1.728615
v -1.718580 0.350000 -1.931634
v -2.500000 1.050000 -3.000000
v 3.000000 1.050000 2.500003
v 2.916443 1.050000 1.544938
v 2.668311 1.050000 0.618892
v 2.263141 1.050000 -0.249997
v 1.713247 1.050000 -1.035329
v 1.035334 1.050000 -1.713242
v 0.250003 1.050000 -2.263138
v -0.618886 1.050000 -2.668308
v -1.544931 1.050000 -2.916442
v -2.500000 0.000000 -3.500000
v 3.500000 0.000000 2.500003
v 2.500000 1.200000 -2.500000
v 2.500000 1.200000 -1.500000
v 3.500000 1.200000 -1.500000
v 3.500000 0.000000 -1.500000
v 2.500000 0.000000 -1.500000
v 2.500000 0.000000 -2.500000
v 1.500000 0.000000 -2.500000
v 1.500000 0.000000 -3.500000
v -2.500000 0.000000 -1.500000
v 1.500000 0.000000 2.500002
v 1.439232 0.000000 1.805409
v 1.258771 0.000000 1.131922
v 0.964103 0.000000 0.500002
v 0.564179 0.000000 -0.071149
v 0.071152 0.000000 -0.564176
v -0.499998 0.000000 -0.964100
v -1.131917 0.000000 -1.258770
v -1.805405 0.000000 -1.439230
v 1.500000 1.200000 -2.500000
v 1.500000 1.200000 -3.500000
vn 1.0000 0.0000 0.0000
vn -0.0000 0.0000 -1.0000
vn -0.0000 -0.0000 1.0000
vn -1.0000 0.0000 0.0000
vn 0.0000 -1.0000 0.0000
vn 0.0000 1.0000 0.0000
vn -0.2873 0.9575 0.0251
vn -0.2785 0.9575 0.0746
vn -0.2613 0.9575 0.1219
vn -0.2362 0.9575 0.1654
vn -0.2039 0.9575 0.2039
vn -0.1654 0.9575 0.2362
vn -0.1219 0.9575 0.2613
vn -0.0746 0.9575 0.2785
vn -0.0251 0.9575 0.2873
vn -0.0501 0.8182 0.5727
vn -0.0872 0.0000 0.9962
vn -0.2588 0.0000 0.9659
vn -0.1488 0.8182 0.5553
vn -0.2430 0.8182 0.5211
vn -0.4226 0.0000 0.9063
vn -0.5736 0.0000 0.8192
vn -0.3298 0.8182 0.4710
vn -0.4065 0.8182 0.4065
vn -0.7071 0.0000 0.7071
vn -0.8192 0.0000 0.5736
vn -0.4710 0.8182 0.3298
vn -0.5211 0.8182 0.2430
vn -0.9063 0.0000 0.4226
vn -0.9659 0.0000 0.2588
vn -0.5553 0.8182 0.1488
vn -0.5727 0.8182 0.0501
vn -0.9962 0.0000 0.0872
usemtl Grass
s off
f 50//1 62//1 61//1 49//1
f 48//1 43//1 44//1 47//1
f 49//2 61//2 43//2 48//2
f 47//2 44//2 45//2 46//2
f 52//3 42//3 22//3
f 42//3 32//3 22//3
f 22//3 12//3 52//3
f 2//3 32//3 42//3
f 51//4 21//4 41//4
f 41//4 21//4 31//4
f 21//4 51//4 11//4
f 1//4 41//4 31//4
f 41//5 50//5 59//5
f 51//5 41//5 60//5
f 47//5 49//5 48//5
f 54//5 46//5 42//5
f 47//5 46//5 54//5
f 57//5 47//5 56//5
f 47//5 57//5 49//5
f 47//5 54//5 55//5
f 49//5 57//5 58//5
f 60//5 41//5 59//5
f 47//5 55//5 56//5
f 10//6 62//6 1//6
f 59//5 50//5 49//5
f 42//5 53//5 54//5
f 42//5 52//5 53//5
f 49//5 58//5 59//5
f 10//6 9//6 62//6
f 61//6 62//6 8//6
f 5//6 44//6 6//6
f 7//6 61//6 8//6
f 2//7 3//7 33//7 32//7
f 43//6 6//6 44//6
f 7//6 6//6 43//6
f 45//6 44//6 5//6
f 7//6 43//6 61//6
f 5//6 4//6 45//6
f 4//6 3//6 45//6
f 3//6 2//6 45//6
f 8//6 62//6 9//6
f 33//8 3//8 4//8 34//8
f 34//9 4//9 5//9 35//9
f 35//10 5//10 6//10 36//10
f 36//11 6//11 7//11 37//11
f 37//12 7//12 8//12 38//12
f 38//13 8//13 9//13 39//13
f 39//14 9//14 10//14 40//14
f 40//15 10//15 1//15 31//15
f 40//16 31//16 21//16 30//16
f 30//15 21//15 11//15 20//15
f 20//17 11//17 51//17 60//17
f 60//18 59//18 19//18 20//18
f 19//14 29//14 30//14 20//14
f 29//19 39//19 40//19 30//19
f 39//20 29//20 28//20 38//20
f 28//13 29//13 19//13 18//13
f 18//21 19//21 59//21 58//21
f 58//22 57//22 17//22 18//22
f 17//12 27//12 28//12 18//12
f 27//23 37//23 38//23 28//23
f 37//24 27//24 26//24 36//24
f 26//11 27//11 17//11 16//11
f 16//25 17//25 57//25 56//25
f 56//26 55//26 15//26 16//26
f 15//10 25//10 26//10 16//10
f 25//27 35//27 36//27 26//27
f 35//28 25//28 24//28 34//28
f 24//9 25//9 15//9 14//9
f 14//29 15//29 55//29 54//29
f 54//30 53//30 13//30 14//30
f 13//8 23//8 24//8 14//8
f 23//31 33//31 34//31 24//31
f 33//32 23//32 22//32 32//32
f 22//7 23//7 13//7 12//7
f 12//33 13//33 53//33 52//33
f 41//2 1//2 62//2 50//2
f 46//1 45//1 2//1 42//1
