# Blender v2.79 (sub 0) OBJ File: 'Hilly Terrain Expansion-Hills.blend'
# www.blender.org
mtllib grass_hill_1_to_2.mtl
o grass_hill_1_to_2_CUBezierCurve.003
v 0.500000 1.050000 0.500000
v 0.578125 1.050000 0.046875
v 0.750000 1.050000 -0.500000
v 0.921875 1.050000 -1.046875
v 1.000000 1.050000 -1.500000
v -2.500000 0.200000 0.500000
v -2.187500 0.200000 0.046875
v -1.500000 0.200000 -0.500000
v -0.812500 0.200000 -1.046875
v -0.500000 0.200000 -1.500000
v -2.500000 0.000000 0.500000
v -2.500000 0.000000 -0.500000
v -1.500000 0.000000 -0.500000
v -1.500000 0.000000 -1.500000
v 1.500000 0.000000 -1.500000
v -1.500000 0.350000 0.500000
v -1.265625 0.350000 0.046875
v -0.750000 0.350000 -0.500000
v -0.234375 0.350000 -1.046875
v -0.000000 0.350000 -1.500000
v 1.500000 0.000000 0.500000
v 1.500000 1.200000 -1.500000
v 1.500000 1.200000 0.500000
v -2.500000 0.200000 -0.500000
v -1.500000 0.200000 -1.500000
v 1.500000 1.200000 -1.000000
v 1.500000 1.200000 -0.500000
v 1.500000 1.200000 -0.000000
vn -0.0000 -0.0000 1.0000
vn 0.0000 0.0000 -1.0000
vn 0.0000 -1.0000 0.0000
vn 1.0000 0.0000 -0.0000
vn -0.1545 0.9879 -0.0127
vn -0.3399 0.9331 -0.1172
vn 0.0000 1.0000 0.0000
vn -0.1536 0.9838 -0.0927
vn -0.1734 0.9662 -0.1907
vn -0.3753 0.8964 -0.2359
vn -0.1773 0.9837 -0.0291
vn -0.2190 0.9751 -0.0360
vn -0.4474 0.8489 -0.2812
vn -0.2141 0.9480 -0.2355
vn -0.2646 0.9510 -0.1597
vn -0.5352 0.8243 -0.1846
vn -0.2671 0.9634 -0.0219
vn -1.0000 0.0000 0.0000
usemtl Grass
s off
f 11//1 21//1 16//1
f 21//1 1//1 16//1
f 16//1 6//1 11//1
f 23//1 1//1 21//1
f 20//2 5//2 15//2
f 20//2 15//2 10//2
f 10//2 15//2 14//2
f 10//2 14//2 25//2
f 12//3 13//3 11//3
f 5//2 22//2 15//2
f 15//4 22//4 26//4
f 28//4 23//4 21//4
f 28//4 21//4 27//4
f 27//4 15//4 26//4
f 21//4 15//4 27//4
f 15//3 21//3 13//3
f 14//3 15//3 13//3
f 1//5 23//5 28//5 2//5
f 13//3 21//3 11//3
f 2//6 17//6 16//6 1//6
f 7//7 24//7 6//7
f 7//8 6//8 16//8 17//8
f 8//7 24//7 7//7
f 8//9 7//9 17//9 18//9
f 18//10 17//10 2//10 3//10
f 2//11 28//11 27//11 3//11
f 27//12 26//12 4//12 3//12
f 4//13 19//13 18//13 3//13
f 9//7 25//7 8//7
f 9//14 8//14 18//14 19//14
f 10//7 25//7 9//7
f 10//15 9//15 19//15 20//15
f 20//16 19//16 4//16 5//16
f 4//17 26//17 22//17 5//17
f 12//18 11//18 6//18 24//18
f 12//2 24//2 8//2 13//2
f 8//18 25//18 14//18 13//18
