# Blender v2.79 (sub 0) OBJ File: 'Hilly Terrain Expansion.blend'
# www.blender.org
mtllib path_edge_corner_split_x2.mtl
o 2Outer.002_Circle.015
v -1.499999 0.200000 0.500000
v -0.719637 0.200000 0.423141
v 0.030735 0.200000 0.195517
v -1.499999 0.200000 0.400000
v -0.739146 0.200000 0.325062
v -0.007533 0.200000 0.103129
v 0.500000 0.200000 -0.100000
v -1.499999 0.150000 0.250000
v -0.768410 0.150000 0.177944
v -0.064935 0.150000 -0.035453
v 0.500000 0.150000 -0.250000
v -1.499999 0.050000 0.150000
v -0.787919 0.050000 0.079866
v -0.103204 0.050000 -0.127840
v 0.500000 0.050000 -0.350000
v -1.499999 0.000000 0.500000
v -1.499999 0.000000 0.000000
v -0.817183 0.000000 -0.067252
v -0.160606 0.000000 -0.266422
v 0.500000 0.000000 -0.500000
v 0.500000 0.000000 0.000000
v 0.500000 0.000000 0.500000
v 0.500000 0.200000 0.000000
v 0.500000 0.200000 0.500000
vn 0.0000 1.0000 -0.0000
vn -0.2058 0.7054 -0.6783
vn -0.0922 0.9482 -0.3039
vn -0.0311 0.9482 -0.3161
vn -0.0695 0.7054 -0.7054
vn -1.0000 0.0000 0.0000
vn 1.0000 0.0000 0.0000
vn 0.0000 0.0000 1.0000
vn 0.0000 -1.0000 0.0000
vn -0.2516 0.6955 -0.6730
vn -0.1184 0.9453 -0.3040
vn -0.1103 0.9457 -0.3058
usemtl Grass
s off
f 1//1 2//1 5//1 4//1
f 2//1 3//1 6//1 5//1
f 13//2 9//2 10//2 14//2
f 10//3 9//3 5//3 6//3
f 9//4 8//4 4//4 5//4
f 8//5 9//5 13//5 12//5
f 12//6 17//6 16//6
f 16//6 1//6 4//6
f 8//6 16//6 4//6
f 8//6 12//6 16//6
f 21//7 23//7 24//7 22//7
f 1//8 16//8 22//8 24//8
f 24//1 3//1 2//1
f 24//1 2//1 1//1
f 16//9 17//9 18//9
f 11//10 15//10 14//10 10//10
f 20//9 22//9 19//9
f 22//9 18//9 19//9
f 22//9 16//9 18//9
f 15//7 11//7 21//7
f 15//7 21//7 20//7
f 21//7 11//7 7//7
f 23//7 21//7 7//7
f 11//11 10//11 6//11 7//11
f 7//1 6//1 3//1 23//1
f 23//1 3//1 24//1
usemtl Dirt
f 17//4 12//4 13//4 18//4
f 18//3 13//3 14//3 19//3
f 19//12 14//12 15//12 20//12
