# Blender v2.79 (sub 0) OBJ File: 'Hilly Terrain Expansion.blend'
# www.blender.org
mtllib path_edge_corner_inner_bb_x2.mtl
o 2Inner_Circle.006
v -1.499999 0.050000 0.850000
v -1.041537 0.050000 0.804845
v -0.600693 0.050000 0.671116
v -0.194409 0.050000 0.453953
v 0.161702 0.050000 0.161700
v 0.453954 0.050000 -0.194411
v 0.671118 0.050000 -0.600696
v 0.804846 0.050000 -1.041540
v 0.850000 0.050000 -1.500002
v -1.499999 0.150000 0.750000
v -1.061046 0.150000 0.706767
v -0.638961 0.150000 0.578728
v -0.249966 0.150000 0.370806
v 0.090991 0.150000 0.090989
v 0.370808 0.150000 -0.249968
v 0.578730 0.150000 -0.638964
v 0.706767 0.150000 -1.061049
v 0.750000 0.150000 -1.500002
v -1.499999 0.200000 0.600000
v -1.090310 0.200000 0.559649
v -0.696364 0.200000 0.440146
v -0.333301 0.200000 0.246085
v -0.015075 0.200000 -0.015077
v 0.246087 0.200000 -0.333304
v 0.440148 0.200000 -0.696366
v 0.559649 0.200000 -1.090312
v 0.600000 0.200000 -1.500002
v -1.499999 0.200000 0.500000
v -1.109818 0.200000 0.461570
v -0.734632 0.200000 0.347759
v -0.388858 0.200000 0.162939
v -0.085785 0.200000 -0.085787
v 0.162940 0.200000 -0.388861
v 0.347760 0.200000 -0.734635
v 0.461571 0.200000 -1.109821
v 0.500000 0.200000 -1.500002
v -1.499999 0.000000 1.000000
v -1.012273 0.000000 0.951963
v -0.543290 0.000000 0.809698
v -0.111073 0.000000 0.578673
v 0.267768 0.000000 0.267766
v 0.578675 0.000000 -0.111076
v 0.809700 0.000000 -0.543293
v 0.951964 0.000000 -1.012276
v 1.000000 0.000000 -1.500002
v -1.499999 0.000000 0.500000
v -1.109818 0.000000 0.461570
v -0.734632 0.000000 0.347759
v -0.388858 0.000000 0.162939
v -0.085785 0.000000 -0.085787
v 0.162940 0.000000 -0.388861
v 0.347760 0.000000 -0.734635
v 0.461571 0.000000 -1.109821
v 0.500000 0.000000 -1.500002
vn -1.0000 0.0000 0.0000
vn 0.0695 0.7054 0.7054
vn 0.2058 0.7054 0.6783
vn 0.3341 0.7054 0.6251
vn 0.4497 0.7054 0.5479
vn 0.5479 0.7054 0.4497
vn 0.6251 0.7054 0.3341
vn 0.6783 0.7054 0.2058
vn 0.7054 0.7054 0.0695
vn 0.0000 -1.0000 0.0000
vn -0.9952 0.0000 -0.0980
vn 0.0000 1.0000 0.0000
vn 0.3161 0.9482 0.0311
vn 0.3039 0.9482 0.0922
vn 0.2801 0.9482 0.1497
vn 0.2455 0.9482 0.2015
vn 0.2015 0.9482 0.2455
vn 0.1497 0.9482 0.2801
vn 0.0922 0.9482 0.3039
vn 0.0311 0.9482 0.3161
vn -0.9569 0.0000 -0.2903
vn -0.0980 0.0000 -0.9952
vn -0.2903 0.0000 -0.9569
vn -0.4714 0.0000 -0.8819
vn -0.6344 0.0000 -0.7730
vn -0.7730 0.0000 -0.6344
vn -0.8819 0.0000 -0.4714
vn -0.0000 -0.0000 -1.0000
usemtl Grass
s off
f 1//1 46//1 37//1
f 1//1 10//1 46//1
f 1//2 2//2 11//2 10//2
f 11//3 2//3 3//3 12//3
f 3//4 4//4 13//4 12//4
f 13//5 4//5 5//5 14//5
f 5//6 6//6 15//6 14//6
f 15//7 6//7 7//7 16//7
f 7//8 8//8 17//8 16//8
f 17//9 8//9 9//9 18//9
f 44//10 53//10 54//10 45//10
f 53//11 35//11 36//11 54//11
f 35//12 26//12 27//12 36//12
f 26//13 17//13 18//13 27//13
f 26//14 25//14 16//14 17//14
f 25//15 24//15 15//15 16//15
f 24//16 23//16 14//16 15//16
f 23//17 22//17 13//17 14//17
f 22//18 21//18 12//18 13//18
f 21//19 20//19 11//19 12//19
f 20//20 19//20 10//20 11//20
f 19//12 20//12 29//12 28//12
f 29//12 20//12 21//12 30//12
f 30//12 21//12 22//12 31//12
f 31//12 22//12 23//12 32//12
f 32//12 23//12 24//12 33//12
f 33//12 24//12 25//12 34//12
f 34//12 25//12 26//12 35//12
f 34//21 35//21 53//21 52//21
f 52//10 53//10 44//10 43//10
f 52//10 43//10 42//10 51//10
f 51//10 42//10 41//10 50//10
f 50//10 41//10 40//10 49//10
f 49//10 40//10 39//10 48//10
f 48//10 39//10 38//10 47//10
f 47//10 38//10 37//10 46//10
f 46//22 28//22 29//22 47//22
f 47//23 29//23 30//23 48//23
f 48//24 30//24 31//24 49//24
f 49//25 31//25 32//25 50//25
f 50//26 32//26 33//26 51//26
f 51//27 33//27 34//27 52//27
f 9//28 45//28 54//28
f 54//28 36//28 27//28
f 18//28 54//28 27//28
f 18//28 9//28 54//28
f 46//1 10//1 19//1
f 28//1 46//1 19//1
usemtl Dirt
f 1//20 37//20 38//20 2//20
f 2//19 38//19 39//19 3//19
f 39//18 40//18 4//18 3//18
f 4//17 40//17 41//17 5//17
f 41//16 42//16 6//16 5//16
f 6//15 42//15 43//15 7//15
f 43//14 44//14 8//14 7//14
f 8//13 44//13 45//13 9//13
